<svg width="74" height="84" viewBox="0 0 74 84" fill="none" xmlns="http://www.w3.org/2000/svg">
<path d="M9.77909 83.4483H63.5641C68.9563 83.4483 73.3432 79.0614 73.3432 73.6692C73.3432 68.277 68.9563 63.8901 63.5641 63.8901C63.2082 63.8901 62.8429 63.9158 62.4654 63.9623C63.1216 60.897 63.7685 58.0973 64.3997 55.3658C66.6647 45.5665 68.4537 37.8265 68.4537 26.8925C68.4537 20.5229 63.556 15.2785 57.3291 14.7205C58.1827 13.2693 58.6746 11.5811 58.6746 9.7791C58.6746 4.3869 54.2877 0 48.8955 0H24.4477C19.0555 0 14.6686 4.3869 14.6686 9.7791C14.6686 11.5811 15.1605 13.2693 16.0141 14.7205C9.78724 15.2785 4.88955 20.5229 4.88955 26.8925C4.88955 37.7696 6.5295 45.0138 9.79653 59.4461C10.1137 60.8473 10.4556 62.3577 10.8147 63.954C10.4594 63.9124 10.1153 63.8901 9.77909 63.8901C4.3869 63.8901 0 68.277 0 73.6692C0 79.0614 4.3869 83.4483 9.77909 83.4483ZM31.7821 40.984L21.0692 19.5582H25.3816L33.9383 36.6716L31.7821 40.984ZM30.8483 19.5582H42.4951L36.6716 31.2049L30.8483 19.5582ZM39.1164 78.5587H34.2268V58.6746H39.1164V78.5587ZM39.1164 53.785H34.2268V48.8955H39.1164V53.785ZM35.7379 44.0059L47.9617 19.5582H52.2742L40.0503 44.0059H35.7379ZM63.5641 68.7796C66.2602 68.7796 68.4537 70.9731 68.4537 73.6692C68.4537 76.3653 66.2602 78.5587 63.5641 78.5587H44.0059V73.2629C50.2388 72.5638 54.9702 71.1082 58.5249 70.0138C60.1142 69.5243 62.4496 68.7796 63.5641 68.7796ZM57.6694 19.701C61.0264 20.3718 63.5641 23.3411 63.5641 26.8925C63.5641 37.2688 61.8306 44.769 59.6359 54.2647C58.8778 57.5446 58.029 61.2181 57.1865 65.3099C57.1528 65.3203 57.1202 65.3302 57.0861 65.3408C53.8329 66.3424 49.5365 67.6645 44.0059 68.3396C44.0059 63.9789 44.0059 51.4301 44.0059 47.028L57.6694 19.701ZM24.4477 4.88955H48.8955C51.5916 4.88955 53.785 7.083 53.785 9.7791C53.785 12.4752 51.5916 14.6686 48.8955 14.6686H24.4477C21.7516 14.6686 19.5582 12.4752 19.5582 9.7791C19.5582 7.083 21.7516 4.88955 24.4477 4.88955ZM9.77909 26.8925C9.77909 23.3411 12.3168 20.3718 15.6738 19.701L29.3373 47.0278V68.3394C23.8069 67.6643 19.5103 66.3422 16.2571 65.3407C16.2131 65.3271 16.171 65.3142 16.1274 65.3007C15.5665 62.7898 15.0391 60.4591 14.5653 58.3665C11.279 43.849 9.77909 37.2231 9.77909 26.8925ZM9.77909 68.7796C10.8101 68.7796 12.6677 69.3515 14.8183 70.0138C18.3728 71.1082 23.1043 72.5638 29.3373 73.2629V78.5587H9.77909C7.083 78.5587 4.88955 76.3653 4.88955 73.6692C4.88955 70.9731 7.083 68.7796 9.77909 68.7796Z"/>
</svg>
