<svg width="42" height="42" viewBox="0 0 42 42" fill="none" xmlns="http://www.w3.org/2000/svg">
<path d="M37.8 0.466797H4.20001C2.13734 0.466797 0.466675 2.13746 0.466675 4.20013V37.8001C0.466675 39.8628 2.13734 41.5335 4.20001 41.5335H22.8667V24.7335H17.2667V19.1335H22.8667V16.1263C22.8667 10.4329 25.6405 7.93346 30.3725 7.93346C32.6387 7.93346 33.8371 8.10146 34.4045 8.178V13.5335H31.1771C29.1685 13.5335 28.4667 14.5937 28.4667 16.7404V19.1335H34.3541L33.5552 24.7335H28.4667V41.5335H37.8C39.8627 41.5335 41.5333 39.8628 41.5333 37.8001V4.20013C41.5333 2.13746 39.8608 0.466797 37.8 0.466797Z" fill="#FF9393"/>
</svg>
