<svg width="29" height="29" viewBox="0 0 29 29" fill="none" xmlns="http://www.w3.org/2000/svg">
<path d="M25.218 15.2866C25.3902 15.0391 25.5105 14.7475 25.5278 14.3943C25.6105 12.6202 23.5391 9.30061 20.3728 6.1338C17.2394 3.00048 14.0329 0.975586 12.188 0.975586C11.5755 0.984122 11.2101 1.22651 11.0128 1.42441C11.0102 1.42699 9.34771 3.48334 9.34771 3.48334C6.2421 3.62137 1.83673 5.81698 1.83673 9.0826C1.83673 9.95225 2.14729 10.7257 2.76105 11.381C2.93153 11.5635 3.13276 11.7333 3.35001 11.8956C3.35966 11.9036 3.87315 12.2385 3.88244 12.2433C5.50259 13.1815 7.68061 13.4479 8.69536 13.4479C10.4076 13.4479 11.6522 13.4016 13.2816 12.7835C13.5994 12.6641 13.9684 12.8352 14.0841 13.1458C14.1438 13.3018 14.1389 13.4711 14.0707 13.6227C14.0025 13.7749 13.8783 13.8913 13.7224 13.9503C11.8994 14.6415 10.4892 14.6951 8.69536 14.6951C6.90152 14.6951 4.34665 14.2134 2.55403 12.8614C2.28731 12.6592 1.90619 12.7049 1.69426 12.968L0.983101 13.8541C0.815017 14.0227 0.609224 14.3291 0.5873 14.8278C0.516676 16.3333 2.18629 19.0196 4.83739 21.6712C7.42155 24.2557 10.0703 25.925 11.5839 25.925C11.5876 25.925 11.6168 25.925 11.6217 25.925C12.1575 25.9146 12.4803 25.7009 12.6057 25.5694L24.8823 15.6603C24.8859 15.6579 25.1874 15.362 25.218 15.2866ZM3.66729 10.5231C3.27512 10.1019 3.08377 9.6307 3.08377 9.0826C3.08377 7.02151 5.81251 5.38604 8.21935 4.88179L3.66729 10.5231ZM17.4866 9.02045C15.3543 6.88833 14.1413 5.10518 13.5373 3.9542C14.7405 4.58211 16.5587 5.84697 18.6094 7.89748C20.7309 10.0198 21.9413 11.8085 22.5429 12.9619C21.3458 12.334 19.5349 11.0697 17.4866 9.02045Z" />
<path d="M25.4189 19.9533C25.1875 19.6159 24.6248 19.6159 24.3933 19.9533C23.9585 20.583 21.788 23.8003 21.788 25.2966C21.788 27.0158 23.1863 28.4147 24.9061 28.4147C26.6259 28.4147 28.0241 27.0158 28.0241 25.2966C28.0242 23.8003 25.8537 20.583 25.4189 19.9533Z" />
</svg>
