<svg width="71" height="84" viewBox="0 0 71 84" fill="none" xmlns="http://www.w3.org/2000/svg">
<path d="M67.8163 67.9885C65.3741 65.5463 61.8593 64.8177 58.7749 65.7981L45.8238 50.4746H56.6773V45.6091H41.7117L29.4547 31.1068L49.9285 5.82842L47.7298 4.34319C43.5242 1.50182 38.6087 0 33.5145 0C28.6773 0 23.9712 1.36443 19.9052 3.94615C16.3841 6.18172 13.477 9.23803 11.4219 12.8416H0V21.8488H4.86558V17.7073H11.299L28.8171 57.6351L25.3488 65.6266C22.4181 64.9179 19.1965 65.7051 16.9131 67.9885C13.4279 71.4739 13.4279 77.1449 16.9131 80.6304C18.6559 82.3732 20.9448 83.2444 23.234 83.2444C25.5231 83.2444 27.8123 82.3731 29.5549 80.6304C30.6737 79.5115 31.4313 78.1671 31.8319 76.7423H52.8977C53.2981 78.1669 54.0558 79.5115 55.1747 80.6304C56.9175 82.3732 59.2064 83.2444 61.4954 83.2444C63.7845 83.2444 66.0739 82.3731 67.8165 80.6304C71.3015 77.1449 71.3015 71.474 67.8163 67.9885ZM26.1142 77.1901C24.5259 78.7781 21.9414 78.7781 20.3534 77.1901C18.7651 75.6018 18.7651 73.0173 20.3534 71.429C21.9416 69.8409 24.5261 69.8409 26.1142 71.429C27.7025 73.0173 27.7025 75.6018 26.1142 77.1901ZM22.5133 8.05375C25.7983 5.96808 29.6025 4.86558 33.5145 4.86558C36.7329 4.86558 39.8623 5.60616 42.6978 7.02473L26.257 27.3234L15.8135 14.9669C17.4653 12.1752 19.7568 9.80399 22.5133 8.05375ZM21.8512 29.6484L43.4442 55.1968H33.0606L21.8512 29.6484ZM52.8977 71.8769H31.8319C31.4375 70.4738 30.6956 69.1495 29.605 68.0412L33.0678 60.0627H47.5568L54.6965 68.5102C53.8377 69.5155 53.238 70.6666 52.8977 71.8769ZM64.3758 77.1901C62.7877 78.7781 60.2032 78.7784 58.615 77.1901C57.0267 75.6018 57.0267 73.0173 58.615 71.429C60.2032 69.841 62.7877 69.8407 64.3758 71.429C65.9641 73.0173 65.9641 75.6018 64.3758 77.1901Z"/>
</svg>
