<svg width="84" height="85" viewBox="0 0 84 85" fill="none" xmlns="http://www.w3.org/2000/svg">
<path d="M66.6745 59.8128C75.8568 59.5398 83.2444 51.791 83.2444 42.3045C83.2444 40.8089 83.2444 29.2199 83.2444 27.2666C83.2444 12.2319 71.2098 0 56.4176 0H49.1012L49.1018 25.2138C47.0263 25.962 45.3795 27.6358 44.6427 29.7454H14.958V14.8727H0V19.8302H10.0804V42.3045C10.0804 51.791 17.4679 59.5398 26.6502 59.8128L40.2573 65.5076L32.5148 68.7481C30.7333 66.3396 27.8995 64.7788 24.7132 64.7788C19.3338 64.7788 14.958 69.2264 14.958 74.6939C14.958 80.1614 19.3338 84.609 24.7132 84.609C30.0925 84.609 34.4684 80.1614 34.4684 74.6939C34.4684 74.2317 34.4347 73.7773 34.3744 73.3312L46.6624 68.1884L58.9504 73.3312C58.89 73.7773 58.8564 74.2317 58.8564 74.6939C58.8564 80.1614 63.2322 84.609 68.6116 84.609C73.9909 84.609 78.3668 80.1614 78.3668 74.6939C78.3668 69.2264 73.9909 64.7788 68.6116 64.7788C65.4252 64.7788 62.5914 66.3396 60.8099 68.7481L53.0674 65.5076L66.6745 59.8128ZM24.7132 79.6515C22.0235 79.6515 19.8356 77.4277 19.8356 74.6939C19.8356 71.9601 22.0235 69.7363 24.7132 69.7363C27.4028 69.7363 29.5908 71.9601 29.5908 74.6939C29.5908 77.4277 27.4028 79.6515 24.7132 79.6515ZM68.6116 69.7363C71.3012 69.7363 73.4892 71.9601 73.4892 74.6939C73.4892 77.4277 71.3012 79.6515 68.6116 79.6515C65.9219 79.6515 63.734 77.4277 63.734 74.6939C63.734 71.9601 65.9219 69.7363 68.6116 69.7363ZM78.3668 29.7454H58.4372C58.3502 29.4975 58.2524 29.2554 58.1412 29.0198L73.559 13.3499C76.5656 17.1675 78.3668 22.0069 78.3668 27.2666V29.7454ZM56.4176 4.95756C61.5924 4.95756 66.3538 6.78824 70.1098 9.84411L54.6907 25.5147C54.4595 25.4017 54.2214 25.3023 53.9775 25.2145L53.9769 4.95756H56.4176ZM51.54 29.7454C52.8845 29.7454 53.9788 30.8576 53.9788 32.2241C53.9788 33.5907 52.8845 34.7029 51.54 34.7029C50.1954 34.7029 49.1012 33.5907 49.1012 32.2241C49.1012 30.8576 50.1954 29.7454 51.54 29.7454ZM14.958 42.3045V34.7029H44.6427C45.65 37.5884 48.3606 39.6605 51.54 39.6605C54.7193 39.6605 57.4299 37.5884 58.4372 34.7029H78.3668V42.3045C78.3668 49.2296 72.8966 54.8637 66.1728 54.8637H27.152C20.4281 54.8637 14.958 49.2296 14.958 42.3045ZM39.48 59.8212H53.8448L46.6624 62.8274L39.48 59.8212Z"/>
</svg>
