<svg width="29" height="29" viewBox="0 0 29 29" fill="none" xmlns="http://www.w3.org/2000/svg">
<path d="M21.9769 0.975643C21.3412 0.971462 20.7181 1.19723 20.2371 1.67804L19.1665 2.7818L26.226 9.87262L27.2966 8.76886C28.2627 7.80307 28.2711 6.23523 27.2966 5.2569L23.7501 1.71148C23.2608 1.22232 22.6126 0.979824 21.9769 0.975643ZM17.962 3.75177L16.2891 5.35724L23.6498 12.7156L25.3561 11.1436L17.962 3.75177ZM15.2185 6.52789L3.64215 18.0003C3.37449 18.1383 3.18211 18.3808 3.10683 18.6693L0.63097 27.0645C0.518051 27.4325 0.618423 27.838 0.890267 28.1098C1.16211 28.3815 1.56778 28.4819 1.93582 28.369L10.3337 25.8939C10.7226 25.8353 11.0446 25.5636 11.1701 25.1915L22.5791 13.8863L19.7352 11.0433H19.7018L17.7947 9.10334L15.2185 6.52789ZM4.91354 19.9068L5.48232 20.4754L8.25929 20.7095L8.39312 23.4188L9.09573 24.1212L4.57896 25.4256L3.57524 24.4222L4.91354 19.9068Z" fill="white"/>
</svg>
