<svg width="46" height="46" viewBox="0 0 46 46" fill="none" xmlns="http://www.w3.org/2000/svg">
<path d="M23 0.600098C10.6296 0.600098 0.599976 10.6297 0.599976 23.0001C0.599976 27.2024 1.78035 31.1202 3.79373 34.4808L0.800496 45.4001L11.9531 42.4725C15.2148 44.3269 18.9801 45.4001 23 45.4001C35.3704 45.4001 45.4 35.3705 45.4 23.0001C45.4 10.6297 35.3704 0.600098 23 0.600098ZM15.3328 12.5511C15.6968 12.5511 16.0708 12.5489 16.3937 12.5657C16.7932 12.5751 17.228 12.6043 17.6442 13.5246C18.1389 14.6184 19.216 17.3626 19.3541 17.6407C19.4923 17.9189 19.5902 18.2465 19.3979 18.6105C19.215 18.9838 19.1198 19.2098 18.851 19.5402C18.5729 19.8613 18.2681 20.26 18.0161 20.5027C17.738 20.7808 17.4508 21.0858 17.7719 21.6402C18.0929 22.1946 19.208 24.0121 20.8562 25.4793C22.9749 27.3721 24.7625 27.9537 25.3187 28.2319C25.875 28.51 26.1971 28.4667 26.5182 28.0933C26.8486 27.7293 27.9058 26.4803 28.2791 25.9241C28.6431 25.3678 29.0147 25.464 29.5187 25.647C30.0302 25.8299 32.7578 27.1735 33.314 27.4517C33.8703 27.7298 34.235 27.8675 34.375 28.0933C34.5187 28.3267 34.5189 29.4374 34.0578 30.7329C33.5967 32.0265 31.3326 33.2775 30.3172 33.3652C29.2924 33.4604 28.336 33.8258 23.6562 31.9834C18.0114 29.7602 14.4515 23.9786 14.1734 23.6053C13.8953 23.2413 11.913 20.5994 11.913 17.8741C11.913 15.1394 13.3468 13.8001 13.8489 13.2438C14.3604 12.6876 14.9595 12.5511 15.3328 12.5511Z" fill="#FF9393"/>
</svg>
