<svg width="33" height="32" viewBox="0 0 33 32" fill="none" xmlns="http://www.w3.org/2000/svg">
<path d="M9.71338 10.7526C4.02404 15.4786 2.07271 21.1619 5.78804 24.6252C9.50271 28.0886 16.9807 27.6232 23.166 23.2946C25.7974 21.4532 27.994 19.1766 28.6707 17.0639C29.0234 15.9626 28.9987 14.7986 27.6454 14.5566C26.2147 14.3012 25.3474 15.3586 24.4887 15.7299C23.2167 16.2806 22.5927 15.2879 24.0714 13.6492C25.6227 11.9299 27.5694 11.0319 27.6394 9.1859C27.832 4.0719 16.6854 4.9599 9.71338 10.7526ZM19.9447 15.1872C18.802 15.6819 17.6014 15.4486 17.2627 14.6659C16.924 13.8832 17.5754 12.8479 18.718 12.3532C19.8607 11.8586 21.0614 12.0919 21.4 12.8746C21.7394 13.6572 21.0874 14.6926 19.9447 15.1872Z" fill="#F2F2F2"/>
<path d="M9.71338 10.1015C4.02404 14.8281 2.07271 20.5108 5.78804 23.9741C9.50271 27.4375 16.9807 26.9721 23.166 22.6435C25.7974 20.8021 27.994 18.5255 28.6707 16.4128C29.0234 15.3115 28.9987 14.1475 27.6454 13.9055C26.2147 13.6501 25.3474 14.7075 24.4887 15.0788C23.2167 15.6295 22.5927 14.6368 24.0714 12.9981C25.6227 11.2788 27.5694 10.3808 27.6394 8.5348C27.832 3.4208 16.6854 4.30947 9.71338 10.1015ZM19.9447 14.5368C18.802 15.0315 17.6014 14.7981 17.2627 14.0155C16.924 13.2328 17.5754 12.1975 18.718 11.7028C19.8607 11.2081 21.0614 11.4415 21.4 12.2241C21.7394 13.0068 21.0874 14.0421 19.9447 14.5368Z" fill="url(#paint0_linear)"/>
<path opacity="0.54" d="M19.6892 22.9009C20.8771 22.0619 21.3607 20.703 20.7693 19.8657C20.178 19.0285 18.7356 19.0299 17.5476 19.869C16.3597 20.708 15.8761 22.0669 16.4675 22.9042C17.0589 23.7414 18.5012 23.74 19.6892 22.9009Z" fill="#45311A"/>
<path d="M20.77 19.5634C21.3613 20.4007 20.878 21.7594 19.69 22.598C18.502 23.4367 17.06 23.4387 16.4687 22.6014C15.8773 21.764 16.3607 20.4054 17.5487 19.5667C18.7367 18.728 20.1787 18.726 20.77 19.5634Z" fill="url(#paint1_radial)"/>
<path d="M16.8989 22.2207C16.4229 21.5467 16.8122 20.4527 17.7682 19.7774C18.7242 19.102 19.8855 19.1007 20.3615 19.7747C20.8375 20.4487 20.4482 21.5427 19.4922 22.218C18.5362 22.8934 17.3749 22.8947 16.8989 22.2207Z" fill="url(#paint2_radial)"/>
<path opacity="0.79" d="M17.614 22.2734C16.7133 21.9474 16.7946 21.1114 16.9006 20.6094C16.5506 21.304 16.5813 22.0507 17.0413 22.45C17.624 22.956 18.812 22.834 19.5133 22.026C19.514 22.026 18.634 22.642 17.614 22.2734Z" fill="url(#paint3_radial)"/>
<path opacity="0.54" d="M11.9272 24.2587C13.2339 23.6201 13.9282 22.3559 13.4781 21.4349C13.028 20.514 11.6039 20.2851 10.2973 20.9238C8.99064 21.5624 8.29628 22.8266 8.74638 23.7476C9.19649 24.6685 10.6206 24.8974 11.9272 24.2587Z" fill="#45311A"/>
<path d="M13.5262 21.138C13.9762 22.0586 13.2822 23.3226 11.9755 23.9613C10.6688 24.6 9.24482 24.3713 8.79482 23.45C8.34482 22.5286 9.03882 21.2653 10.3455 20.6266C11.6522 19.9886 13.0762 20.2173 13.5262 21.138Z" fill="url(#paint4_radial)"/>
<path d="M9.27994 23.1433C8.91727 22.4019 9.4766 21.3839 10.5286 20.8699C11.5806 20.3559 12.7273 20.5399 13.0893 21.2813C13.4513 22.0226 12.8926 23.0406 11.8406 23.5546C10.7886 24.0686 9.64194 23.8846 9.27994 23.1433Z" fill="url(#paint5_radial)"/>
<path opacity="0.8" d="M9.97799 23.3094C9.14066 22.8441 9.35466 22.0314 9.53932 21.5527C9.08332 22.1827 8.99399 22.9247 9.38466 23.3921C9.87932 23.9847 11.0713 24.0541 11.8927 23.3687C11.8927 23.3687 10.926 23.8361 9.97799 23.3094Z" fill="url(#paint6_radial)"/>
<path opacity="0.54" d="M9.27359 19.0789C10.4124 18.1743 10.8188 16.7903 10.1812 15.9877C9.54369 15.185 8.10366 15.2676 6.96484 16.1722C5.82603 17.0768 5.41966 18.4607 6.05721 19.2634C6.69475 20.066 8.13477 19.9834 9.27359 19.0789Z" fill="#45311A"/>
<path d="M10.1648 15.6871C10.8022 16.4898 10.3962 17.8731 9.2575 18.7778C8.11883 19.6824 6.67883 19.7651 6.0415 18.9624C5.40417 18.1598 5.81017 16.7764 6.94883 15.8717C8.0875 14.9677 9.5275 14.8851 10.1648 15.6871Z" fill="url(#paint7_radial)"/>
<path d="M6.44884 18.5585C5.93551 17.9125 6.26284 16.7978 7.17951 16.0698C8.09617 15.3418 9.2555 15.2751 9.76884 15.9211C10.2822 16.5671 9.95484 17.6818 9.03817 18.4098C8.1215 19.1378 6.96217 19.2045 6.44884 18.5585Z" fill="url(#paint8_radial)"/>
<path opacity="0.8" d="M7.16595 18.5706C6.24795 18.2959 6.28262 17.4566 6.35995 16.9492C6.04995 17.6626 6.12262 18.4059 6.60462 18.7792C7.21529 19.2519 8.39395 19.0626 9.04929 18.2166C9.04929 18.2172 8.20529 18.8812 7.16595 18.5706Z" fill="url(#paint9_radial)"/>
<path opacity="0.54" d="M13.1548 13.7769C14.4313 13.0799 15.0679 11.7856 14.5767 10.8859C14.0854 9.98624 12.6525 9.82189 11.376 10.5188C10.0995 11.2158 9.4629 12.5101 9.95412 13.4098C10.4453 14.3094 11.8783 14.4738 13.1548 13.7769Z" fill="#45311A"/>
<path d="M14.6114 10.5873C15.1027 11.4866 14.4661 12.7813 13.1894 13.478C11.9127 14.1746 10.4801 14.0106 9.9894 13.1106C9.49874 12.2106 10.1347 10.9166 11.4114 10.22C12.6881 9.52329 14.1201 9.68796 14.6114 10.5873Z" fill="url(#paint10_radial)"/>
<path d="M10.4592 12.7819C10.0638 12.0579 10.5765 11.0159 11.6038 10.4546C12.6312 9.89324 13.7852 10.0259 14.1805 10.7499C14.5758 11.4739 14.0632 12.5159 13.0358 13.0772C12.0085 13.6386 10.8545 13.5066 10.4592 12.7819Z" fill="url(#paint11_radial)"/>
<path opacity="0.8" d="M11.1647 12.9158C10.3074 12.4885 10.484 11.6672 10.6474 11.1812C10.22 11.8312 10.1647 12.5765 10.576 13.0258C11.0967 13.5958 12.2907 13.6105 13.0807 12.8892C13.08 12.8892 12.1354 13.3998 11.1647 12.9158Z" fill="url(#paint12_radial)"/>
<path opacity="0.54" d="M19.2957 10.5238C20.7274 10.2681 21.7419 9.24283 21.5617 8.23375C21.3815 7.22468 20.0748 6.61392 18.6431 6.86959C17.2114 7.12526 16.1969 8.15054 16.3771 9.15961C16.5573 10.1687 17.864 10.7794 19.2957 10.5238Z" fill="#45311A"/>
<path d="M21.6896 7.96041C21.8696 8.96907 20.8556 9.99441 19.4236 10.2504C17.9922 10.5064 16.6856 9.89574 16.5056 8.88641C16.3256 7.87774 17.3396 6.85241 18.7716 6.59641C20.2036 6.34041 21.5089 6.95107 21.6896 7.96041Z" fill="url(#paint13_radial)"/>
<path d="M17.0561 8.72421C16.9107 7.91154 17.7274 7.08621 18.8801 6.88088C20.0327 6.67488 21.0847 7.16688 21.2301 7.97888C21.3754 8.79154 20.5587 9.61687 19.4061 9.82221C18.2534 10.0275 17.2007 9.53621 17.0561 8.72421Z" fill="url(#paint14_radial)"/>
<path opacity="0.8" d="M17.6821 9.07447C17.0048 8.39714 17.4335 7.67447 17.7421 7.26514C17.1308 7.7458 16.8415 8.43514 17.0888 8.9918C17.4015 9.69714 18.5295 10.0911 19.5075 9.65714C19.5068 9.65714 18.4488 9.8418 17.6821 9.07447Z" fill="url(#paint15_radial)"/>
<defs>
<linearGradient id="paint0_linear" x1="22.3732" y1="3.14417" x2="11.8265" y2="27.6561" gradientUnits="userSpaceOnUse">
<stop stop-color="#FFC973"/>
<stop offset="0.287" stop-color="#F2B963"/>
<stop offset="0.847" stop-color="#D29139"/>
<stop offset="0.986" stop-color="#C9862E"/>
</linearGradient>
<radialGradient id="paint1_radial" cx="0" cy="0" r="1" gradientUnits="userSpaceOnUse" gradientTransform="translate(19.2058 19.8936) rotate(127.414) scale(3.11014 2.51138)">
<stop offset="0.431" stop-color="#DE1300"/>
<stop offset="0.546" stop-color="#D71302"/>
<stop offset="0.716" stop-color="#C31408"/>
<stop offset="0.917" stop-color="#A31511"/>
<stop offset="1" stop-color="#941515"/>
</radialGradient>
<radialGradient id="paint2_radial" cx="0" cy="0" r="1" gradientUnits="userSpaceOnUse" gradientTransform="translate(18.3689 21.0874) scale(2.70133)">
<stop offset="0.137" stop-color="#DE1300"/>
<stop offset="0.312" stop-color="#D71302"/>
<stop offset="0.569" stop-color="#C31408"/>
<stop offset="0.874" stop-color="#A31511"/>
<stop offset="1" stop-color="#941515"/>
</radialGradient>
<radialGradient id="paint3_radial" cx="0" cy="0" r="1" gradientUnits="userSpaceOnUse" gradientTransform="translate(18.5847 20.8559) rotate(138.738) scale(2.23533 1.58463)">
<stop offset="0.125" stop-color="#FFCF4D" stop-opacity="0"/>
<stop offset="0.316" stop-color="#FFCE51" stop-opacity="0.205"/>
<stop offset="0.504" stop-color="#FFCC5D" stop-opacity="0.407"/>
<stop offset="0.691" stop-color="#FFC771" stop-opacity="0.608"/>
<stop offset="0.876" stop-color="#FFC18C" stop-opacity="0.806"/>
<stop offset="1" stop-color="#FFD680"/>
</radialGradient>
<radialGradient id="paint4_radial" cx="0" cy="0" r="1" gradientUnits="userSpaceOnUse" gradientTransform="translate(11.9304 21.2155) rotate(136.6) scale(3.11008 2.51125)">
<stop offset="0.148" stop-color="#FFCF14"/>
<stop offset="0.321" stop-color="#FCCC14"/>
<stop offset="0.47" stop-color="#F2C115"/>
<stop offset="0.611" stop-color="#E2AF16"/>
<stop offset="0.745" stop-color="#CC9617"/>
<stop offset="0.875" stop-color="#AF7719"/>
<stop offset="1" stop-color="#8C501B"/>
</radialGradient>
<radialGradient id="paint5_radial" cx="0" cy="0" r="1" gradientUnits="userSpaceOnUse" gradientTransform="translate(10.6565 22.4191) rotate(147.933) scale(2.72059 2.1351)">
<stop offset="0.148" stop-color="#FFCF14"/>
<stop offset="0.321" stop-color="#FCCC14"/>
<stop offset="0.47" stop-color="#F2C115"/>
<stop offset="0.611" stop-color="#E2AF16"/>
<stop offset="0.745" stop-color="#CC9617"/>
<stop offset="0.875" stop-color="#AF7719"/>
<stop offset="1" stop-color="#8C501B"/>
</radialGradient>
<radialGradient id="paint6_radial" cx="0" cy="0" r="1" gradientUnits="userSpaceOnUse" gradientTransform="translate(11.1612 22.0649) rotate(147.933) scale(2.23527 1.5846)">
<stop offset="0.125" stop-color="#FFCF4D" stop-opacity="0"/>
<stop offset="0.276" stop-color="#FFD051" stop-opacity="0.172"/>
<stop offset="0.424" stop-color="#FFD45D" stop-opacity="0.342"/>
<stop offset="0.572" stop-color="#FFD971" stop-opacity="0.51"/>
<stop offset="0.719" stop-color="#FFE28C" stop-opacity="0.678"/>
<stop offset="0.864" stop-color="#FFECB0" stop-opacity="0.844"/>
<stop offset="1" stop-color="#FFF8D8"/>
</radialGradient>
<radialGradient id="paint7_radial" cx="0" cy="0" r="1" gradientUnits="userSpaceOnUse" gradientTransform="translate(8.62252 16.1042) rotate(124.187) scale(3.10999 2.51135)">
<stop offset="0.165" stop-color="#82E012"/>
<stop offset="0.316" stop-color="#80DD12"/>
<stop offset="0.445" stop-color="#7CD213"/>
<stop offset="0.567" stop-color="#74C014"/>
<stop offset="0.684" stop-color="#68A716"/>
<stop offset="0.796" stop-color="#5A8818"/>
<stop offset="0.905" stop-color="#48611B"/>
</radialGradient>
<radialGradient id="paint8_radial" cx="0" cy="0" r="1" gradientUnits="userSpaceOnUse" gradientTransform="translate(7.79022 17.3761) rotate(139.063) scale(2.70122 2.35079)">
<stop offset="0.165" stop-color="#82E012"/>
<stop offset="0.316" stop-color="#80DD12"/>
<stop offset="0.445" stop-color="#7CD213"/>
<stop offset="0.567" stop-color="#74C014"/>
<stop offset="0.684" stop-color="#68A716"/>
<stop offset="0.796" stop-color="#5A8818"/>
<stop offset="0.905" stop-color="#48611B"/>
</radialGradient>
<radialGradient id="paint9_radial" cx="0" cy="0" r="1" gradientUnits="userSpaceOnUse" gradientTransform="translate(8.05627 17.1009) rotate(135.515) scale(2.23525 1.58448)">
<stop offset="0.125" stop-color="#FFCF4D" stop-opacity="0"/>
<stop offset="0.313" stop-color="#FDD151" stop-opacity="0.215"/>
<stop offset="0.498" stop-color="#F6D65D" stop-opacity="0.426"/>
<stop offset="0.681" stop-color="#EBDE71" stop-opacity="0.636"/>
<stop offset="0.863" stop-color="#DCEA8C" stop-opacity="0.844"/>
<stop offset="1" stop-color="#CDF5A6"/>
</radialGradient>
<radialGradient id="paint10_radial" cx="0" cy="0" r="1" gradientUnits="userSpaceOnUse" gradientTransform="translate(12.6701 10.7032) rotate(134.02) scale(3.95731 3.19552)">
<stop offset="0.116" stop-color="#1291E0"/>
<stop offset="0.349" stop-color="#1290DE"/>
<stop offset="0.48" stop-color="#138BD5"/>
<stop offset="0.586" stop-color="#1483C8"/>
<stop offset="0.678" stop-color="#1577B4"/>
<stop offset="0.762" stop-color="#17689A"/>
<stop offset="0.838" stop-color="#19567B"/>
<stop offset="0.891" stop-color="#1B4661"/>
</radialGradient>
<radialGradient id="paint11_radial" cx="0" cy="0" r="1" gradientUnits="userSpaceOnUse" gradientTransform="translate(11.6356 12.3019) rotate(133.314) scale(3.62 2.55956)">
<stop offset="0.116" stop-color="#1291E0"/>
<stop offset="0.349" stop-color="#1290DE"/>
<stop offset="0.48" stop-color="#138BD5"/>
<stop offset="0.586" stop-color="#1483C8"/>
<stop offset="0.678" stop-color="#1577B4"/>
<stop offset="0.762" stop-color="#17689A"/>
<stop offset="0.838" stop-color="#19567B"/>
<stop offset="0.891" stop-color="#1B4661"/>
</radialGradient>
<radialGradient id="paint12_radial" cx="0" cy="0" r="1" gradientUnits="userSpaceOnUse" gradientTransform="translate(12.2919 11.6194) rotate(145.347) scale(2.23531 1.58456)">
<stop offset="0.125" stop-color="#FFCF4D" stop-opacity="0"/>
<stop offset="0.258" stop-color="#FCCF51" stop-opacity="0.153"/>
<stop offset="0.389" stop-color="#F4D15D" stop-opacity="0.303"/>
<stop offset="0.519" stop-color="#E6D371" stop-opacity="0.452"/>
<stop offset="0.648" stop-color="#D2D68C" stop-opacity="0.601"/>
<stop offset="0.777" stop-color="#B8DAB0" stop-opacity="0.749"/>
<stop offset="0.904" stop-color="#9ADFDB" stop-opacity="0.895"/>
<stop offset="0.995" stop-color="#80E3FF"/>
</radialGradient>
<radialGradient id="paint13_radial" cx="0" cy="0" r="1" gradientUnits="userSpaceOnUse" gradientTransform="translate(20.1336 7.59599) rotate(152.523) scale(3.11002 2.51133)">
<stop offset="0.116" stop-color="#8044FF"/>
<stop offset="0.35" stop-color="#7F43FD"/>
<stop offset="0.482" stop-color="#7C41F4"/>
<stop offset="0.589" stop-color="#763EE7"/>
<stop offset="0.682" stop-color="#6E3AD3"/>
<stop offset="0.766" stop-color="#6433B9"/>
<stop offset="0.843" stop-color="#582C9A"/>
<stop offset="0.887" stop-color="#4F2785"/>
</radialGradient>
<radialGradient id="paint14_radial" cx="0" cy="0" r="1" gradientUnits="userSpaceOnUse" gradientTransform="translate(18.3581 8.79918) rotate(151.818) scale(3.29418 2.043)">
<stop offset="0.116" stop-color="#8044FF"/>
<stop offset="0.35" stop-color="#7F43FD"/>
<stop offset="0.482" stop-color="#7C41F4"/>
<stop offset="0.589" stop-color="#763EE7"/>
<stop offset="0.682" stop-color="#6E3AD3"/>
<stop offset="0.766" stop-color="#6433B9"/>
<stop offset="0.843" stop-color="#582C9A"/>
<stop offset="0.887" stop-color="#4F2785"/>
</radialGradient>
<radialGradient id="paint15_radial" cx="0" cy="0" r="1" gradientUnits="userSpaceOnUse" gradientTransform="translate(19.1629 8.20287) rotate(163.852) scale(2.23522 1.58459)">
<stop offset="0.125" stop-color="#FFCF4D" stop-opacity="0"/>
<stop offset="0.249" stop-color="#FDCE51" stop-opacity="0.159"/>
<stop offset="0.372" stop-color="#F7C95D" stop-opacity="0.316"/>
<stop offset="0.493" stop-color="#ECC271" stop-opacity="0.472"/>
<stop offset="0.614" stop-color="#DEB88C" stop-opacity="0.627"/>
<stop offset="0.735" stop-color="#CBACB0" stop-opacity="0.782"/>
<stop offset="0.854" stop-color="#B59CDB" stop-opacity="0.935"/>
<stop offset="0.905" stop-color="#AA95F0"/>
</radialGradient>
</defs>
</svg>
