<svg width="29" height="29" viewBox="0 0 29 29" fill="none" xmlns="http://www.w3.org/2000/svg">
<path d="M19.5528 0.220703C18.5483 0.220703 17.5449 0.601313 16.7851 1.36114L1.36367 16.7848C-0.155974 18.3044 -0.155974 20.8028 1.36367 22.3225L6.5412 27.5C7.21296 28.1717 8.0772 28.5293 8.96212 28.6071C9.07439 28.6419 9.19138 28.6592 9.30892 28.6582H18.4146C18.5654 28.6603 18.7152 28.6325 18.8552 28.5762C18.9951 28.52 19.1225 28.4365 19.2299 28.3306C19.3373 28.2247 19.4226 28.0985 19.4808 27.9593C19.5391 27.8202 19.569 27.6708 19.569 27.52C19.569 27.3691 19.5391 27.2198 19.4808 27.0807C19.4226 26.9415 19.3373 26.8153 19.2299 26.7094C19.1225 26.6035 18.9951 26.52 18.8552 26.4638C18.7152 26.4075 18.5654 26.3796 18.4146 26.3818H13.1948L27.5003 12.0763C29.0199 10.5567 29.0199 8.05831 27.5003 6.53866L22.3228 1.36114C21.5629 0.601313 20.5573 0.220703 19.5528 0.220703ZM10.1137 11.2516L17.6099 18.7478L10.4671 25.8905C9.81708 26.5405 8.80077 26.5405 8.1507 25.8905L2.97318 20.713C2.32339 20.0632 2.32339 19.0441 2.97318 18.3943L10.1137 11.2516ZM22.9675 26.3818C22.6656 26.3818 22.3761 26.5017 22.1626 26.7152C21.9492 26.9286 21.8292 27.2181 21.8292 27.52C21.8292 27.8219 21.9492 28.1114 22.1626 28.3248C22.3761 28.5383 22.6656 28.6582 22.9675 28.6582C23.2693 28.6582 23.5588 28.5383 23.7723 28.3248C23.9858 28.1114 24.1057 27.8219 24.1057 27.52C24.1057 27.2181 23.9858 26.9286 23.7723 26.7152C23.5588 26.5017 23.2693 26.3818 22.9675 26.3818ZM27.5203 26.3818C27.2184 26.3818 26.9289 26.5017 26.7155 26.7152C26.502 26.9286 26.3821 27.2181 26.3821 27.52C26.3821 27.8219 26.502 28.1114 26.7155 28.3248C26.9289 28.5383 27.2184 28.6582 27.5203 28.6582C27.8222 28.6582 28.1117 28.5383 28.3251 28.3248C28.5386 28.1114 28.6585 27.8219 28.6585 27.52C28.6585 27.2181 28.5386 26.9286 28.3251 26.7152C28.1117 26.5017 27.8222 26.3818 27.5203 26.3818Z"/>
</svg>
