<svg width="125" height="46" viewBox="0 0 125 46" fill="none" xmlns="http://www.w3.org/2000/svg">
<path fill-rule="evenodd" clip-rule="evenodd" d="M117.944 0.174766C116.671 0.477348 116.274 0.848863 115.628 2.34126C114.14 5.77887 111.718 13.3719 110.401 18.7294L109.933 20.6335L109.299 20.0096C107.742 18.4759 105.385 17.9357 102.702 18.4971C97.7838 19.5261 94.1435 24.0406 92.5558 31.0796C92.1291 32.971 91.8961 35.1505 91.9744 36.519L92.0434 37.7266L91.1724 38.6894C90.2951 39.6595 89.0759 40.4316 88.4217 40.4316C86.9272 40.4316 86.2185 38.5013 86.5576 35.355C86.9988 31.262 88.5927 25.9348 90.6225 21.7694C91.7054 19.5474 91.7389 19.3794 91.2491 18.6204C91.1367 18.4461 90.7211 18.1252 90.3256 17.907C88.217 16.7445 84.0828 16.7056 83.0553 17.8389C81.5341 19.5168 78.9722 28.7032 78.3954 34.5489C78.236 36.1638 78.1863 36.3403 77.6757 37.1059C76.3721 39.0603 74.6863 40.4316 73.5872 40.4316C73.3074 40.4316 73.0001 40.2713 72.7032 39.9707L72.248 39.5095L72.3305 38.1229C72.3759 37.3601 72.6182 35.8197 72.8691 34.6997C73.7741 30.6592 73.3348 28.2635 71.5079 27.275C70.9632 26.9803 70.6514 26.9316 69.3096 26.9316C67.9594 26.9316 67.5886 26.9902 66.5915 27.3619C65.2709 27.8541 63.971 28.6575 62.6852 29.7759C61.8293 30.5205 61.8065 30.5304 62.1189 30.0238C62.7026 29.0772 63.7455 27.7075 64.7192 26.6086C67.1176 23.9018 69.2732 22.6456 72.1726 22.2654C73.9567 22.0313 74.0752 21.9278 74.0731 20.6052C74.0695 18.3401 72.3875 16.692 70.3812 16.9878C67.204 17.4565 63.6309 20.7712 60.2942 26.3451C59.2738 28.0499 59.121 28.2763 59.2398 27.9075C59.2791 27.7855 59.4548 26.9391 59.6302 26.0265C61.099 18.3844 64.1826 9.53249 67.0502 4.72572C68.1007 2.96483 68.1999 2.41909 67.6007 1.69778C66.8217 0.760019 64.387 0.0752122 62.3111 0.209911C60.5874 0.321984 59.7495 0.638896 59.1204 1.41707C56.3911 4.79239 53.1097 15.6466 51.6804 26.0265C51.2179 29.3859 50.8455 33.324 50.8455 34.8568C50.8455 35.4927 50.8017 36.4377 50.7481 36.9567C50.6576 37.8337 50.5941 37.9622 49.8478 38.7789C49.0034 39.7028 47.7925 40.4316 47.1019 40.4316C46.8769 40.4316 46.5047 40.2677 46.275 40.0673C45.8668 39.7114 45.8572 39.6667 45.8601 38.1441C45.8637 36.3287 46.132 35.1521 47.6433 30.3254C48.889 26.3471 48.9158 25.4853 47.8443 23.8884C47.252 23.0055 46.2564 22.5551 44.0703 22.1808C41.5367 21.7469 39.8932 21.4101 39.6906 21.2833C39.5609 21.2021 39.5924 20.887 39.8134 20.0556C40.9134 15.9167 40.2642 12.3823 38.2114 11.3352C36.3417 10.3816 34.8446 11.0661 33.7917 13.3561C33.0514 14.9664 32.7786 16.4617 32.8605 18.4617C32.9546 20.7612 33.4238 21.7429 34.8601 22.6453L35.3287 22.9398L35.0532 24.2169C34.442 27.0504 33.404 29.9133 31.84 33.0788C30.1918 36.4149 28.6214 38.6525 27.2094 39.6767C25.1481 41.1719 23.8145 40.3046 23.6343 37.3518C23.4187 33.8155 25.5568 25.8205 27.9244 21.3091C28.7017 19.8283 28.8055 19.292 28.4225 18.7382C27.3309 17.1593 22.6979 16.4293 20.6119 17.5072C19.9735 17.8372 19.5555 18.5419 18.7506 20.6464L18.3275 21.7525L17.9901 21.0799C16.4592 18.0283 11.2605 17.3598 7.43976 19.723C4.01272 21.8427 1.71914 25.5831 0.422179 31.167C0.0450039 32.7909 0.00420401 33.2354 0.000183586 35.7556C-0.00353903 38.0073 0.0481309 38.7354 0.26717 39.5266C0.868447 41.6972 2.11284 43.5944 3.58402 44.5837C7.27313 47.0641 12.1861 46.1949 15.0632 42.5524L15.7702 41.6575L16.1136 42.5826C16.6287 43.9707 17.4627 44.9973 18.4904 45.5087C19.2625 45.8927 19.4992 45.9359 20.7667 45.9239C21.9225 45.9131 22.3685 45.8372 23.2041 45.5091C26.7418 44.1204 29.764 40.9128 33.135 34.9691C34.2097 33.0743 36.8519 27.7114 37.7451 25.6117C38.0187 24.9689 38.2949 24.4427 38.3592 24.4427C38.6028 24.4427 39.4998 25.3654 39.6767 25.798C39.9397 26.441 39.8064 27.6781 39.1158 31.0042C38.2382 35.2318 37.9813 37.1851 37.9753 39.6774C37.971 41.5398 38.0206 42.0281 38.3092 42.9654C38.9746 45.1265 40.5565 46.1695 42.8418 45.9543C45.0619 45.7454 47.0864 44.6534 49.326 42.4572C50.1782 41.6217 50.8968 41.0108 50.9232 41.0997C50.9496 41.1885 51.0151 41.5272 51.0687 41.8522C51.3534 43.5783 52.3091 45.061 53.4747 45.5852C54.4333 46.0163 55.744 46.1057 56.41 45.7856C57.1218 45.4434 57.2123 45.2497 57.3868 43.6935C57.5682 42.0768 58.3996 39.5261 59.2258 38.0511C60.4655 35.8383 62.6563 34.0964 64.1998 34.0964C65.2227 34.0964 65.2806 34.4482 64.6722 36.9623C64.0395 39.5767 63.9854 41.8009 64.5212 43.173C64.9249 44.2067 65.8034 45.1628 66.7495 45.598C67.7366 46.0522 69.9109 46.047 71.1587 45.5877C73.3022 44.7988 75.6592 42.9693 77.5118 40.6565L78.3007 39.6715L78.556 40.9497C79.0333 43.3375 79.9346 44.8153 81.34 45.5144C82.0992 45.8921 82.3409 45.9357 83.6045 45.9235C86.2007 45.8983 88.1361 44.8915 90.8264 42.1663L92.6132 40.3562L93.1972 41.5629C95.197 45.6944 100.122 47.1942 104.41 44.9777C105.343 44.4961 106.689 43.2911 107.355 42.3424C107.682 41.8757 107.993 41.4925 108.046 41.4908C108.098 41.489 108.182 41.7082 108.233 41.9777C108.389 42.8048 109.014 44.0006 109.666 44.7166C111.957 47.2343 116.62 45.9449 120.51 41.7183C122.443 39.6171 124.851 35.9571 124.851 35.1191C124.851 34.4649 124.485 33.9456 124.025 33.9456C123.63 33.9456 123.482 34.1305 121.954 36.5269C120.422 38.9291 118.743 40.4316 117.593 40.4316C115.564 40.4316 114.984 37.0142 115.99 30.9985C117.211 23.6968 121.293 10.4458 124.121 4.60278C124.605 3.60468 125 2.66481 125 2.51427C125 0.893964 120.79 -0.501896 117.944 0.174766ZM90.603 3.86956C88.7629 4.18119 87.3262 5.03976 86.2504 6.47077C84.1869 9.21543 84.6766 12.4772 87.3685 13.9168C87.8903 14.1958 88.2377 14.2533 89.4118 14.2543C90.718 14.2557 90.9062 14.2165 91.8687 13.7433C93.1978 13.0897 94.562 11.7334 95.1403 10.4902C96.2723 8.05744 95.5039 5.34883 93.3911 4.32388C92.629 3.95418 91.3422 3.74451 90.603 3.86956ZM14.9977 24.1958C17.0309 26.1045 16.2518 32.8606 13.4869 37.2951C12.8157 38.3718 11.4743 39.7442 10.8632 39.9795C9.65293 40.4458 8.59422 39.8071 8.14706 38.3416C7.95824 37.7226 7.88975 36.9963 7.896 35.6802C7.91462 31.8059 9.65889 27.0699 11.8511 24.9416C12.6903 24.1269 13.2491 23.8415 14.007 23.8403C14.4439 23.8397 14.7264 23.941 14.9977 24.1958ZM107.209 24.3402C108.68 25.8307 108.55 30.5337 106.925 34.6148C104.365 41.0412 100.262 42.1444 100.014 36.4732C99.7688 30.8813 103.131 23.8394 106.046 23.8394C106.604 23.8394 106.796 23.9219 107.209 24.3402Z" fill="url(#paint0_linear)"/>
<defs>
<linearGradient id="paint0_linear" x1="62.5" y1="0" x2="62.5" y2="46" gradientUnits="userSpaceOnUse">
<stop stop-color="#18274E"/>
<stop offset="1" stop-color="#1D2F5C"/>
</linearGradient>
</defs>
</svg>
