<svg width="126" height="46" viewBox="0 0 126 46" fill="none" xmlns="http://www.w3.org/2000/svg">
<path fill-rule="evenodd" clip-rule="evenodd" d="M118.629 0.174766C117.357 0.477348 116.96 0.848863 116.314 2.34126C114.825 5.77887 112.404 13.3719 111.087 18.7294L110.619 20.6335L109.985 20.0096C108.427 18.4759 106.071 17.9357 103.388 18.4971C98.4693 19.5261 94.8291 24.0406 93.2413 31.0796C92.8147 32.971 92.5817 35.1505 92.66 36.519L92.7289 37.7266L91.858 38.6894C90.9806 39.6595 89.7614 40.4316 89.1073 40.4316C87.6127 40.4316 86.9041 38.5013 87.2431 35.355C87.6843 31.262 89.2782 25.9348 91.3081 21.7694C92.3909 19.5474 92.4244 19.3794 91.9347 18.6204C91.8222 18.4461 91.4066 18.1252 91.0112 17.907C88.9025 16.7445 84.7683 16.7056 83.7409 17.8389C82.2197 19.5168 79.6578 28.7032 79.0809 34.5489C78.9216 36.1638 78.8719 36.3403 78.3613 37.1059C77.0576 39.0603 75.3718 40.4316 74.2728 40.4316C73.993 40.4316 73.6856 40.2713 73.3887 39.9707L72.9335 39.5095L73.016 38.1229C73.0614 37.3601 73.3037 35.8197 73.5546 34.6997C74.4596 30.6592 74.0204 28.2635 72.1935 27.275C71.6488 26.9803 71.337 26.9316 69.9952 26.9316C68.6449 26.9316 68.2742 26.9902 67.2771 27.3619C65.9565 27.8541 64.6565 28.6575 63.3707 29.7759C62.5148 30.5205 62.492 30.5304 62.8044 30.0238C63.3881 29.0772 64.4311 27.7075 65.4048 26.6086C67.8032 23.9018 69.9587 22.6456 72.8582 22.2654C74.6422 22.0313 74.7607 21.9278 74.7587 20.6052C74.7551 18.3401 73.0731 16.692 71.0667 16.9878C67.8895 17.4565 64.3164 20.7712 60.9798 26.3451C59.9593 28.0499 59.8065 28.2763 59.9254 27.9075C59.9647 27.7855 60.1404 26.9391 60.3158 26.0265C61.7846 18.3844 64.8681 9.53249 67.7357 4.72572C68.7862 2.96483 68.8854 2.41909 68.2862 1.69778C67.5073 0.760019 65.0726 0.0752122 62.9967 0.209911C61.273 0.321984 60.4351 0.638896 59.8059 1.41707C57.0767 4.79239 53.7953 15.6466 52.3659 26.0265C51.9034 29.3859 51.531 33.324 51.531 34.8568C51.531 35.4927 51.4872 36.4377 51.4336 36.9567C51.3431 37.8337 51.2797 37.9622 50.5334 38.7789C49.6889 39.7028 48.478 40.4316 47.7874 40.4316C47.5624 40.4316 47.1903 40.2677 46.9605 40.0673C46.5524 39.7114 46.5427 39.6667 46.5457 38.1441C46.5493 36.3287 46.8176 35.1521 48.3288 30.3254C49.5746 26.3471 49.6014 25.4853 48.5298 23.8884C47.9375 23.0055 46.9419 22.5551 44.7559 22.1808C42.2222 21.7469 40.5788 21.4101 40.3761 21.2833C40.2464 21.2021 40.278 20.887 40.499 20.0556C41.5989 15.9167 40.9497 12.3823 38.8969 11.3352C37.0273 10.3816 35.5302 11.0661 34.4773 13.3561C33.7369 14.9664 33.4641 16.4617 33.546 18.4617C33.6401 20.7612 34.1093 21.7429 35.5457 22.6453L36.0143 22.9398L35.7388 24.2169C35.1275 27.0504 34.0895 29.9133 32.5256 33.0788C30.8773 36.4149 29.307 38.6525 27.8949 39.6767C25.8336 41.1719 24.5001 40.3046 24.3199 37.3518C24.1043 33.8155 26.2424 25.8205 28.61 21.3091C29.3873 19.8283 29.491 19.292 29.1081 18.7382C28.0164 17.1593 23.3834 16.4293 21.2974 17.5072C20.6591 17.8372 20.2411 18.5419 19.4361 20.6464L19.0131 21.7525L18.6756 21.0799C17.1448 18.0283 11.9461 17.3598 8.12531 19.723C4.69826 21.8427 2.40469 25.5831 1.10773 31.167C0.730551 32.7909 0.689751 33.2354 0.68573 35.7556C0.682008 38.0073 0.733678 38.7354 0.952717 39.5266C1.55399 41.6972 2.79839 43.5944 4.26957 44.5837C7.95868 47.0641 12.8716 46.1949 15.7488 42.5524L16.4558 41.6575L16.7992 42.5826C17.3142 43.9707 18.1482 44.9973 19.176 45.5087C19.948 45.8927 20.1848 45.9359 21.4523 45.9239C22.6081 45.9131 23.054 45.8372 23.8897 45.5091C27.4274 44.1204 30.4495 40.9128 33.8206 34.9691C34.8952 33.0743 37.5374 27.7114 38.4307 25.6117C38.7042 24.9689 38.9804 24.4427 39.0448 24.4427C39.2884 24.4427 40.1854 25.3654 40.3623 25.798C40.6252 26.441 40.492 27.6781 39.8013 31.0042C38.9237 35.2318 38.6668 37.1851 38.6609 39.6774C38.6566 41.5398 38.7062 42.0281 38.9947 42.9654C39.6602 45.1265 41.242 46.1695 43.5274 45.9543C45.7474 45.7454 47.7719 44.6534 50.0116 42.4572C50.8638 41.6217 51.5824 41.0108 51.6087 41.0997C51.6351 41.1885 51.7006 41.5272 51.7542 41.8522C52.0389 43.5783 52.9946 45.061 54.1602 45.5852C55.1189 46.0163 56.4295 46.1057 57.0956 45.7856C57.8073 45.4434 57.8979 45.2497 58.0724 43.6935C58.2538 42.0768 59.0851 39.5261 59.9114 38.0511C61.151 35.8383 63.3418 34.0964 64.8854 34.0964C65.9082 34.0964 65.9661 34.4482 65.3577 36.9623C64.725 39.5767 64.671 41.8009 65.2067 43.173C65.6104 44.2067 66.4889 45.1628 67.4351 45.598C68.4222 46.0522 70.5965 46.047 71.8443 45.5877C73.9878 44.7988 76.3448 42.9693 78.1973 40.6565L78.9862 39.6715L79.2416 40.9497C79.7188 43.3375 80.6201 44.8153 82.0255 45.5144C82.7848 45.8921 83.0264 45.9357 84.29 45.9235C86.8862 45.8983 88.8217 44.8915 91.5119 42.1663L93.2988 40.3562L93.8828 41.5629C95.8826 45.6944 100.807 47.1942 105.096 44.9777C106.028 44.4961 107.374 43.2911 108.04 42.3424C108.368 41.8757 108.679 41.4925 108.731 41.4908C108.783 41.489 108.868 41.7082 108.919 41.9777C109.074 42.8048 109.7 44.0006 110.352 44.7166C112.643 47.2343 117.306 45.9449 121.195 41.7183C123.129 39.6171 125.537 35.9571 125.537 35.1191C125.537 34.4649 125.171 33.9456 124.71 33.9456C124.316 33.9456 124.167 34.1305 122.639 36.5269C121.107 38.9291 119.429 40.4316 118.278 40.4316C116.25 40.4316 115.669 37.0142 116.675 30.9985C117.896 23.6968 121.979 10.4458 124.807 4.60278C125.29 3.60468 125.686 2.66481 125.686 2.51427C125.686 0.893964 121.475 -0.501896 118.629 0.174766ZM91.2886 3.86956C89.4484 4.18119 88.0118 5.03976 86.9359 6.47077C84.8724 9.21543 85.3622 12.4772 88.0541 13.9168C88.5758 14.1958 88.9232 14.2533 90.0973 14.2543C91.4035 14.2557 91.5917 14.2165 92.5543 13.7433C93.8834 13.0897 95.2475 11.7334 95.8258 10.4902C96.9578 8.05744 96.1895 5.34883 94.0767 4.32388C93.3146 3.95418 92.0277 3.74451 91.2886 3.86956ZM15.6833 24.1958C17.7164 26.1045 16.9373 32.8606 14.1725 37.2951C13.5012 38.3718 12.1599 39.7442 11.5488 39.9795C10.3385 40.4458 9.27976 39.8071 8.8326 38.3416C8.64379 37.7226 8.5753 36.9963 8.58155 35.6802C8.60016 31.8059 10.3444 27.0699 12.5366 24.9416C13.3758 24.1269 13.9347 23.8415 14.6926 23.8403C15.1295 23.8397 15.412 23.941 15.6833 24.1958ZM107.894 24.3402C109.366 25.8307 109.236 30.5337 107.61 34.6148C105.051 41.0412 100.948 42.1444 100.699 36.4732C100.454 30.8813 103.817 23.8394 106.732 23.8394C107.29 23.8394 107.482 23.9219 107.894 24.3402Z" fill="#F5FCFF"/>
</svg>
